<svg aria-roledescription="flowchart-v2" role="graphics-document document" viewBox="-8 -8 597.5 1641" style="max-width: 597.5px;" xmlns="http://www.w3.org/2000/svg" width="597.5" id="svg" xmlns:xlink="http://www.w3.org/1999/xlink" height="1641"><style>#svg{font-family:"trebuchet ms",verdana,arial,sans-serif;font-size:16px;fill:#333;}#svg .error-icon{fill:#552222;}#svg .error-text{fill:#552222;stroke:#552222;}#svg .edge-thickness-normal{stroke-width:2px;}#svg .edge-thickness-thick{stroke-width:3.5px;}#svg .edge-pattern-solid{stroke-dasharray:0;}#svg .edge-pattern-dashed{stroke-dasharray:3;}#svg .edge-pattern-dotted{stroke-dasharray:2;}#svg .marker{fill:#333333;stroke:#333333;}#svg .marker.cross{stroke:#333333;}#svg svg{font-family:"trebuchet ms",verdana,arial,sans-serif;font-size:16px;}#svg .label{font-family:"trebuchet ms",verdana,arial,sans-serif;color:#333;}#svg .cluster-label text{fill:#333;}#svg .cluster-label span,#svg p{color:#333;}#svg .label text,#svg span,#svg p{fill:#333;color:#333;}#svg .node rect,#svg .node circle,#svg .node ellipse,#svg .node polygon,#svg .node path{fill:#ECECFF;stroke:#9370DB;stroke-width:1px;}#svg .flowchart-label text{text-anchor:middle;}#svg .node .katex path{fill:#000;stroke:#000;stroke-width:1px;}#svg .node .label{text-align:center;}#svg .node.clickable{cursor:pointer;}#svg .arrowheadPath{fill:#333333;}#svg .edgePath .path{stroke:#333333;stroke-width:2.0px;}#svg .flowchart-link{stroke:#333333;fill:none;}#svg .edgeLabel{background-color:#e8e8e8;text-align:center;}#svg .edgeLabel rect{opacity:0.5;background-color:#e8e8e8;fill:#e8e8e8;}#svg .labelBkg{background-color:rgba(232, 232, 232, 0.5);}#svg .cluster rect{fill:#ffffde;stroke:#aaaa33;stroke-width:1px;}#svg .cluster text{fill:#333;}#svg .cluster span,#svg p{color:#333;}#svg div.mermaidTooltip{position:absolute;text-align:center;max-width:200px;padding:2px;font-family:"trebuchet ms",verdana,arial,sans-serif;font-size:12px;background:hsl(80, 100%, 96.2745098039%);border:1px solid #aaaa33;border-radius:2px;pointer-events:none;z-index:100;}#svg .flowchartTitleText{text-anchor:middle;font-size:18px;fill:#333;}#svg .today{display:none;}#svg .label foreignObject{overflow:visible;}#svg :root{--mermaid-font-family:"trebuchet ms",verdana,arial,sans-serif;}#svg .start&gt;*{fill:#e8f3ff!important;stroke:#3b82f6!important;stroke-width:1.5px!important;color:#0f172a!important;}#svg .start span{fill:#e8f3ff!important;stroke:#3b82f6!important;stroke-width:1.5px!important;color:#0f172a!important;}#svg .start tspan{fill:#0f172a!important;}#svg .local&gt;*{fill:#f8fafc!important;stroke:#64748b!important;color:#0f172a!important;}#svg .local span{fill:#f8fafc!important;stroke:#64748b!important;color:#0f172a!important;}#svg .local tspan{fill:#0f172a!important;}#svg .broker&gt;*{fill:#fff7ed!important;stroke:#f97316!important;color:#0f172a!important;}#svg .broker span{fill:#fff7ed!important;stroke:#f97316!important;color:#0f172a!important;}#svg .broker tspan{fill:#0f172a!important;}#svg .consume&gt;*{fill:#ecfdf5!important;stroke:#22c55e!important;color:#0f172a!important;}#svg .consume span{fill:#ecfdf5!important;stroke:#22c55e!important;color:#0f172a!important;}#svg .consume tspan{fill:#0f172a!important;}#svg .result&gt;*{fill:#fef2f2!important;stroke:#ef4444!important;color:#0f172a!important;}#svg .result span{fill:#fef2f2!important;stroke:#ef4444!important;color:#0f172a!important;}#svg .result tspan{fill:#0f172a!important;}</style><g><marker orient="auto" markerHeight="12" markerWidth="12" markerUnits="userSpaceOnUse" refY="5" refX="6" viewBox="0 0 10 10" class="marker flowchart" id="svg_flowchart-pointEnd"><path style="stroke-width: 1; stroke-dasharray: 1, 0;" class="arrowMarkerPath" d="M 0 0 L 10 5 L 0 10 z"></path></marker><marker orient="auto" markerHeight="12" markerWidth="12" markerUnits="userSpaceOnUse" refY="5" refX="4.5" viewBox="0 0 10 10" class="marker flowchart" id="svg_flowchart-pointStart"><path style="stroke-width: 1; stroke-dasharray: 1, 0;" class="arrowMarkerPath" d="M 0 5 L 10 10 L 10 0 z"></path></marker><marker orient="auto" markerHeight="11" markerWidth="11" markerUnits="userSpaceOnUse" refY="5" refX="11" viewBox="0 0 10 10" class="marker flowchart" id="svg_flowchart-circleEnd"><circle style="stroke-width: 1; stroke-dasharray: 1, 0;" class="arrowMarkerPath" r="5" cy="5" cx="5"></circle></marker><marker orient="auto" markerHeight="11" markerWidth="11" markerUnits="userSpaceOnUse" refY="5" refX="-1" viewBox="0 0 10 10" class="marker flowchart" id="svg_flowchart-circleStart"><circle style="stroke-width: 1; stroke-dasharray: 1, 0;" class="arrowMarkerPath" r="5" cy="5" cx="5"></circle></marker><marker orient="auto" markerHeight="11" markerWidth="11" markerUnits="userSpaceOnUse" refY="5.2" refX="12" viewBox="0 0 11 11" class="marker cross flowchart" id="svg_flowchart-crossEnd"><path style="stroke-width: 2; stroke-dasharray: 1, 0;" class="arrowMarkerPath" d="M 1,1 l 9,9 M 10,1 l -9,9"></path></marker><marker orient="auto" markerHeight="11" markerWidth="11" markerUnits="userSpaceOnUse" refY="5.2" refX="-1" viewBox="0 0 11 11" class="marker cross flowchart" id="svg_flowchart-crossStart"><path style="stroke-width: 2; stroke-dasharray: 1, 0;" class="arrowMarkerPath" d="M 1,1 l 9,9 M 10,1 l -9,9"></path></marker><g class="root"><g class="clusters"></g><g class="edgePaths"><path marker-end="url(#svg_flowchart-pointEnd)" style="fill:none;" class="edge-thickness-normal edge-pattern-solid flowchart-link LS-A LE-B" id="L-A-B-0" d="M292,36L292,40.167C292,44.333,292,52.667,292,60.117C292,67.567,292,74.133,292,77.417L292,80.7"></path><path marker-end="url(#svg_flowchart-pointEnd)" style="fill:none;" class="edge-thickness-normal edge-pattern-solid flowchart-link LS-B LE-C" id="L-B-C-0" d="M292,122L292,126.167C292,130.333,292,138.667,292,146.117C292,153.567,292,160.133,292,163.417L292,166.7"></path><path marker-end="url(#svg_flowchart-pointEnd)" style="fill:none;" class="edge-thickness-normal edge-pattern-solid flowchart-link LS-C LE-D" id="L-C-D-0" d="M292,208L292,212.167C292,216.333,292,224.667,292,232.117C292,239.567,292,246.133,292,249.417L292,252.7"></path><path marker-end="url(#svg_flowchart-pointEnd)" style="fill:none;" class="edge-thickness-normal edge-pattern-solid flowchart-link LS-D LE-E" id="L-D-E-0" d="M292,294L292,298.167C292,302.333,292,310.667,292,318.117C292,325.567,292,332.133,292,335.417L292,338.7"></path><path marker-end="url(#svg_flowchart-pointEnd)" style="fill:none;" class="edge-thickness-normal edge-pattern-solid flowchart-link LS-E LE-F" id="L-E-F-0" d="M246.372,380L235.81,384.167C225.248,388.333,204.124,396.667,193.562,404.117C183,411.567,183,418.133,183,421.417L183,424.7"></path><path marker-end="url(#svg_flowchart-pointEnd)" style="fill:none;" class="edge-thickness-normal edge-pattern-solid flowchart-link LS-F LE-G" id="L-F-G-0" d="M183,466L183,470.167C183,474.333,183,482.667,183.066,490.2C183.132,497.734,183.264,504.467,183.33,507.834L183.396,511.201"></path><path marker-end="url(#svg_flowchart-pointEnd)" style="fill:none;" class="edge-thickness-normal edge-pattern-solid flowchart-link LS-G LE-H" id="L-G-H-0" d="M231.286,682.714L242.405,696.511C253.524,710.309,275.762,737.905,286.881,756.736C298,775.567,298,785.633,298,790.667L298,795.7"></path><path marker-end="url(#svg_flowchart-pointEnd)" style="fill:none;" class="edge-thickness-normal edge-pattern-solid flowchart-link LS-H LE-I" id="L-H-I-0" d="M298,837L298,841.167C298,845.333,298,853.667,298,861.117C298,868.567,298,875.133,298,878.417L298,881.7"></path><path marker-end="url(#svg_flowchart-pointEnd)" style="fill:none;" class="edge-thickness-normal edge-pattern-solid flowchart-link LS-I LE-J" id="L-I-J-0" d="M298,923L298,927.167C298,931.333,298,939.667,298,947.117C298,954.567,298,961.133,298,964.417L298,967.7"></path><path marker-end="url(#svg_flowchart-pointEnd)" style="fill:none;" class="edge-thickness-normal edge-pattern-solid flowchart-link LS-J LE-K" id="L-J-K-0" d="M298,1009L298,1013.167C298,1017.333,298,1025.667,298,1033.117C298,1040.567,298,1047.133,298,1050.417L298,1053.7"></path><path marker-end="url(#svg_flowchart-pointEnd)" style="fill:none;" class="edge-thickness-normal edge-pattern-solid flowchart-link LS-K LE-L" id="L-K-L-0" d="M298,1095L298,1099.167C298,1103.333,298,1111.667,298.066,1119.2C298.132,1126.734,298.264,1133.467,298.33,1136.834L298.396,1140.201"></path><path marker-end="url(#svg_flowchart-pointEnd)" style="fill:none;" class="edge-thickness-normal edge-pattern-solid flowchart-link LS-L LE-M" id="L-L-M-0" d="M269.145,1231.145L257.787,1241.871C246.43,1252.596,223.715,1274.048,212.357,1293.691C201,1313.333,201,1331.167,201,1347.25C201,1363.333,201,1377.667,209.592,1388.642C218.183,1399.617,235.367,1407.235,243.958,1411.043L252.55,1414.852"></path><path marker-end="url(#svg_flowchart-pointEnd)" style="fill:none;" class="edge-thickness-normal edge-pattern-solid flowchart-link LS-L LE-N" id="L-L-N-0" d="M326.977,1232.023L337.356,1242.603C347.735,1253.182,368.492,1274.341,378.871,1289.954C389.25,1305.567,389.25,1315.633,389.25,1320.667L389.25,1325.7"></path><path marker-end="url(#svg_flowchart-pointEnd)" style="fill:none;" class="edge-thickness-normal edge-pattern-solid flowchart-link LS-N LE-M" id="L-N-M-0" d="M389.25,1367L389.25,1371.167C389.25,1375.333,389.25,1383.667,381.207,1391.623C373.164,1399.58,357.078,1407.16,349.035,1410.951L340.992,1414.741"></path><path marker-end="url(#svg_flowchart-pointEnd)" style="fill:none;" class="edge-thickness-normal edge-pattern-solid flowchart-link LS-M LE-O" id="L-M-O-0" d="M298,1453L298,1457.167C298,1461.333,298,1469.667,298,1477.117C298,1484.567,298,1491.133,298,1494.417L298,1497.7"></path><path marker-end="url(#svg_flowchart-pointEnd)" style="fill:none;" class="edge-thickness-normal edge-pattern-solid flowchart-link LS-G LE-P" id="L-G-P-0" d="M135.714,682.714L124.428,696.511C113.142,710.309,90.571,737.905,79.286,760.619C68,783.333,68,801.167,68,817.25C68,833.333,68,847.667,68,862C68,876.333,68,890.667,68,905C68,919.333,68,933.667,68,948C68,962.333,68,976.667,68,991C68,1005.333,68,1019.667,68,1034C68,1048.333,68,1062.667,68,1077C68,1091.333,68,1105.667,68,1126.583C68,1147.5,68,1175,68,1204.25C68,1233.5,68,1264.5,68,1288.917C68,1313.333,68,1331.167,68,1347.25C68,1363.333,68,1377.667,68,1392C68,1406.333,68,1420.667,68,1435C68,1449.333,68,1463.667,68,1474.117C68,1484.567,68,1491.133,68,1494.417L68,1497.7"></path><path marker-end="url(#svg_flowchart-pointEnd)" style="fill:none;" class="edge-thickness-normal edge-pattern-solid flowchart-link LS-P LE-Q" id="L-P-Q-0" d="M68,1539L68,1543.167C68,1547.333,68,1555.667,90.798,1564.096C113.597,1572.525,159.194,1581.049,181.992,1585.312L204.79,1589.574"></path><path marker-end="url(#svg_flowchart-pointEnd)" style="fill:none;" class="edge-thickness-normal edge-pattern-solid flowchart-link LS-O LE-Q" id="L-O-Q-0" d="M298,1539L298,1543.167C298,1547.333,298,1555.667,298,1563.117C298,1570.567,298,1577.133,298,1580.417L298,1583.7"></path><path marker-end="url(#svg_flowchart-pointEnd)" style="fill:none;" class="edge-thickness-normal edge-pattern-solid flowchart-link LS-Q LE-E" id="L-Q-E-0" d="M386,1593.653L418.583,1588.71C451.167,1583.768,516.333,1573.884,548.917,1561.775C581.5,1549.667,581.5,1535.333,581.5,1521C581.5,1506.667,581.5,1492.333,581.5,1478C581.5,1463.667,581.5,1449.333,581.5,1435C581.5,1420.667,581.5,1406.333,581.5,1392C581.5,1377.667,581.5,1363.333,581.5,1347.25C581.5,1331.167,581.5,1313.333,581.5,1288.917C581.5,1264.5,581.5,1233.5,581.5,1204.25C581.5,1175,581.5,1147.5,581.5,1126.583C581.5,1105.667,581.5,1091.333,581.5,1077C581.5,1062.667,581.5,1048.333,581.5,1034C581.5,1019.667,581.5,1005.333,581.5,991C581.5,976.667,581.5,962.333,581.5,948C581.5,933.667,581.5,919.333,581.5,905C581.5,890.667,581.5,876.333,581.5,862C581.5,847.667,581.5,833.333,581.5,817.25C581.5,801.167,581.5,783.333,581.5,750.667C581.5,718,581.5,670.5,581.5,624.75C581.5,579,581.5,535,581.5,505.833C581.5,476.667,581.5,462.333,581.5,448C581.5,433.667,581.5,419.333,554.321,408.13C527.143,396.926,472.786,388.852,445.607,384.816L418.429,380.779"></path></g><g class="edgeLabels"><g class="edgeLabel"><g transform="translate(0, 0)" class="label"><foreignObject height="0" width="0"><div style="display: inline-block; white-space: nowrap;" xmlns="http://www.w3.org/1999/xhtml"><span class="edgeLabel"></span></div></foreignObject></g></g><g class="edgeLabel"><g transform="translate(0, 0)" class="label"><foreignObject height="0" width="0"><div style="display: inline-block; white-space: nowrap;" xmlns="http://www.w3.org/1999/xhtml"><span class="edgeLabel"></span></div></foreignObject></g></g><g class="edgeLabel"><g transform="translate(0, 0)" class="label"><foreignObject height="0" width="0"><div style="display: inline-block; white-space: nowrap;" xmlns="http://www.w3.org/1999/xhtml"><span class="edgeLabel"></span></div></foreignObject></g></g><g class="edgeLabel"><g transform="translate(0, 0)" class="label"><foreignObject height="0" width="0"><div style="display: inline-block; white-space: nowrap;" xmlns="http://www.w3.org/1999/xhtml"><span class="edgeLabel"></span></div></foreignObject></g></g><g class="edgeLabel"><g transform="translate(0, 0)" class="label"><foreignObject height="0" width="0"><div style="display: inline-block; white-space: nowrap;" xmlns="http://www.w3.org/1999/xhtml"><span class="edgeLabel"></span></div></foreignObject></g></g><g class="edgeLabel"><g transform="translate(0, 0)" class="label"><foreignObject height="0" width="0"><div style="display: inline-block; white-space: nowrap;" xmlns="http://www.w3.org/1999/xhtml"><span class="edgeLabel"></span></div></foreignObject></g></g><g transform="translate(298, 765.5)" class="edgeLabel"><g transform="translate(-24, -10.5)" class="label"><foreignObject height="21" width="48"><div style="display: inline-block; white-space: nowrap;" xmlns="http://www.w3.org/1999/xhtml"><span class="edgeLabel">有消息</span></div></foreignObject></g></g><g class="edgeLabel"><g transform="translate(0, 0)" class="label"><foreignObject height="0" width="0"><div style="display: inline-block; white-space: nowrap;" xmlns="http://www.w3.org/1999/xhtml"><span class="edgeLabel"></span></div></foreignObject></g></g><g class="edgeLabel"><g transform="translate(0, 0)" class="label"><foreignObject height="0" width="0"><div style="display: inline-block; white-space: nowrap;" xmlns="http://www.w3.org/1999/xhtml"><span class="edgeLabel"></span></div></foreignObject></g></g><g class="edgeLabel"><g transform="translate(0, 0)" class="label"><foreignObject height="0" width="0"><div style="display: inline-block; white-space: nowrap;" xmlns="http://www.w3.org/1999/xhtml"><span class="edgeLabel"></span></div></foreignObject></g></g><g class="edgeLabel"><g transform="translate(0, 0)" class="label"><foreignObject height="0" width="0"><div style="display: inline-block; white-space: nowrap;" xmlns="http://www.w3.org/1999/xhtml"><span class="edgeLabel"></span></div></foreignObject></g></g><g transform="translate(201, 1349)" class="edgeLabel"><g transform="translate(-16, -10.5)" class="label"><foreignObject height="21" width="32"><div style="display: inline-block; white-space: nowrap;" xmlns="http://www.w3.org/1999/xhtml"><span class="edgeLabel">成功</span></div></foreignObject></g></g><g transform="translate(389.25, 1295.5)" class="edgeLabel"><g transform="translate(-16, -10.5)" class="label"><foreignObject height="21" width="32"><div style="display: inline-block; white-space: nowrap;" xmlns="http://www.w3.org/1999/xhtml"><span class="edgeLabel">失败</span></div></foreignObject></g></g><g class="edgeLabel"><g transform="translate(0, 0)" class="label"><foreignObject height="0" width="0"><div style="display: inline-block; white-space: nowrap;" xmlns="http://www.w3.org/1999/xhtml"><span class="edgeLabel"></span></div></foreignObject></g></g><g class="edgeLabel"><g transform="translate(0, 0)" class="label"><foreignObject height="0" width="0"><div style="display: inline-block; white-space: nowrap;" xmlns="http://www.w3.org/1999/xhtml"><span class="edgeLabel"></span></div></foreignObject></g></g><g transform="translate(68, 1077)" class="edgeLabel"><g transform="translate(-32, -10.5)" class="label"><foreignObject height="21" width="64"><div style="display: inline-block; white-space: nowrap;" xmlns="http://www.w3.org/1999/xhtml"><span class="edgeLabel">暂无消息</span></div></foreignObject></g></g><g class="edgeLabel"><g transform="translate(0, 0)" class="label"><foreignObject height="0" width="0"><div style="display: inline-block; white-space: nowrap;" xmlns="http://www.w3.org/1999/xhtml"><span class="edgeLabel"></span></div></foreignObject></g></g><g class="edgeLabel"><g transform="translate(0, 0)" class="label"><foreignObject height="0" width="0"><div style="display: inline-block; white-space: nowrap;" xmlns="http://www.w3.org/1999/xhtml"><span class="edgeLabel"></span></div></foreignObject></g></g><g class="edgeLabel"><g transform="translate(0, 0)" class="label"><foreignObject height="0" width="0"><div style="display: inline-block; white-space: nowrap;" xmlns="http://www.w3.org/1999/xhtml"><span class="edgeLabel"></span></div></foreignObject></g></g></g><g class="nodes"><g transform="translate(292, 18)" data-id="A" data-node="true" id="flowchart-A-0" class="node default start flowchart-label"><rect height="36" width="143" y="-18" x="-71.5" ry="18" rx="18" style=""></rect><g transform="translate(-59.5, -10.5)" style="" class="label"><rect></rect><foreignObject height="21" width="119"><div style="display: inline-block; white-space: nowrap;" xmlns="http://www.w3.org/1999/xhtml"><span class="nodeLabel">Consumer 启动</span></div></foreignObject></g></g><g transform="translate(292, 104)" data-id="B" data-node="true" id="flowchart-B-1" class="node default local flowchart-label"><rect height="36" width="263" y="-18" x="-131.5" ry="0" rx="0" style="" class="basic label-container"></rect><g transform="translate(-124, -10.5)" style="" class="label"><rect></rect><foreignObject height="21" width="248"><div style="display: inline-block; white-space: nowrap;" xmlns="http://www.w3.org/1999/xhtml"><span class="nodeLabel">Rebalance 分配 MessageQueue</span></div></foreignObject></g></g><g transform="translate(292, 190)" data-id="C" data-node="true" id="flowchart-C-3" class="node default local flowchart-label"><rect height="36" width="167" y="-18" x="-83.5" ry="0" rx="0" style="" class="basic label-container"></rect><g transform="translate(-76, -10.5)" style="" class="label"><rect></rect><foreignObject height="21" width="152"><div style="display: inline-block; white-space: nowrap;" xmlns="http://www.w3.org/1999/xhtml"><span class="nodeLabel">创建 ProcessQueue</span></div></foreignObject></g></g><g transform="translate(292, 276)" data-id="D" data-node="true" id="flowchart-D-5" class="node default local flowchart-label"><rect height="36" width="144" y="-18" x="-72" ry="0" rx="0" style="" class="basic label-container"></rect><g transform="translate(-64.5, -10.5)" style="" class="label"><rect></rect><foreignObject height="21" width="129"><div style="display: inline-block; white-space: nowrap;" xmlns="http://www.w3.org/1999/xhtml"><span class="nodeLabel">生成 PullRequest</span></div></foreignObject></g></g><g transform="translate(292, 362)" data-id="E" data-node="true" id="flowchart-E-7" class="node default local flowchart-label"><rect height="36" width="273" y="-18" x="-136.5" ry="0" rx="0" style="" class="basic label-container"></rect><g transform="translate(-129, -10.5)" style="" class="label"><rect></rect><foreignObject height="21" width="258"><div style="display: inline-block; white-space: nowrap;" xmlns="http://www.w3.org/1999/xhtml"><span class="nodeLabel">PullMessageService 调度拉取请求</span></div></foreignObject></g></g><g transform="translate(183, 448)" data-id="F" data-node="true" id="flowchart-F-9" class="node default broker flowchart-label"><rect height="36" width="366" y="-18" x="-183" ry="0" rx="0" style="" class="basic label-container"></rect><g transform="translate(-175.5, -10.5)" style="" class="label"><rect></rect><foreignObject height="21" width="351"><div style="display: inline-block; white-space: nowrap;" xmlns="http://www.w3.org/1999/xhtml"><span class="nodeLabel">DefaultMQPushConsumerImpl 异步拉 Broker</span></div></foreignObject></g></g><g transform="translate(183, 623)" data-id="G" data-node="true" id="flowchart-G-11" class="node default broker flowchart-label"><polygon style="" transform="translate(-107,107)" class="label-container" points="107,0 214,-107 107,-214 0,-107"></polygon><g transform="translate(-81.5, -10.5)" style="" class="label"><rect></rect><foreignObject height="21" width="163"><div style="display: inline-block; white-space: nowrap;" xmlns="http://www.w3.org/1999/xhtml"><span class="nodeLabel">Broker 是否返回消息?</span></div></foreignObject></g></g><g transform="translate(298, 819)" data-id="H" data-node="true" id="flowchart-H-13" class="node default local flowchart-label"><rect height="36" width="199" y="-18" x="-99.5" ry="0" rx="0" style="" class="basic label-container"></rect><g transform="translate(-92, -10.5)" style="" class="label"><rect></rect><foreignObject height="21" width="184"><div style="display: inline-block; white-space: nowrap;" xmlns="http://www.w3.org/1999/xhtml"><span class="nodeLabel">写入本地 ProcessQueue</span></div></foreignObject></g></g><g transform="translate(298, 905)" data-id="I" data-node="true" id="flowchart-I-15" class="node default consume flowchart-label"><rect height="36" width="320" y="-18" x="-160" ry="0" rx="0" style="" class="basic label-container"></rect><g transform="translate(-152.5, -10.5)" style="" class="label"><rect></rect><foreignObject height="21" width="305"><div style="display: inline-block; white-space: nowrap;" xmlns="http://www.w3.org/1999/xhtml"><span class="nodeLabel">ConsumeMessageService 提交消费任务</span></div></foreignObject></g></g><g transform="translate(298, 991)" data-id="J" data-node="true" id="flowchart-J-17" class="node default consume flowchart-label"><rect height="36" width="271" y="-18" x="-135.5" ry="0" rx="0" style="" class="basic label-container"></rect><g transform="translate(-128, -10.5)" style="" class="label"><rect></rect><foreignObject height="21" width="256"><div style="display: inline-block; white-space: nowrap;" xmlns="http://www.w3.org/1999/xhtml"><span class="nodeLabel">消费线程池执行 ConsumeRequest</span></div></foreignObject></g></g><g transform="translate(298, 1077)" data-id="K" data-node="true" id="flowchart-K-19" class="node default consume flowchart-label"><rect height="36" width="218" y="-18" x="-109" ry="0" rx="0" style="" class="basic label-container"></rect><g transform="translate(-101.5, -10.5)" style="" class="label"><rect></rect><foreignObject height="21" width="203"><div style="display: inline-block; white-space: nowrap;" xmlns="http://www.w3.org/1999/xhtml"><span class="nodeLabel">回调业务 MessageListener</span></div></foreignObject></g></g><g transform="translate(298, 1202.5)" data-id="L" data-node="true" id="flowchart-L-21" class="node default result flowchart-label"><polygon style="" transform="translate(-57.5,57.5)" class="label-container" points="57.5,0 115,-57.5 57.5,-115 0,-57.5"></polygon><g transform="translate(-32, -10.5)" style="" class="label"><rect></rect><foreignObject height="21" width="64"><div style="display: inline-block; white-space: nowrap;" xmlns="http://www.w3.org/1999/xhtml"><span class="nodeLabel">消费结果</span></div></foreignObject></g></g><g transform="translate(298, 1435)" data-id="M" data-node="true" id="flowchart-M-23" class="node default local flowchart-label"><rect height="36" width="268" y="-18" x="-134" ry="0" rx="0" style="" class="basic label-container"></rect><g transform="translate(-126.5, -10.5)" style="" class="label"><rect></rect><foreignObject height="21" width="253"><div style="display: inline-block; white-space: nowrap;" xmlns="http://www.w3.org/1999/xhtml"><span class="nodeLabel">从 ProcessQueue 移除已消费消息</span></div></foreignObject></g></g><g transform="translate(389.25, 1349)" data-id="N" data-node="true" id="flowchart-N-25" class="node default result flowchart-label"><rect height="36" width="263" y="-18" x="-131.5" ry="0" rx="0" style="" class="basic label-container"></rect><g transform="translate(-124, -10.5)" style="" class="label"><rect></rect><foreignObject height="21" width="248"><div style="display: inline-block; white-space: nowrap;" xmlns="http://www.w3.org/1999/xhtml"><span class="nodeLabel">sendMessageBack 进入重试链路</span></div></foreignObject></g></g><g transform="translate(298, 1521)" data-id="O" data-node="true" id="flowchart-O-29" class="node default local flowchart-label"><rect height="36" width="225" y="-18" x="-112.5" ry="0" rx="0" style="" class="basic label-container"></rect><g transform="translate(-105, -10.5)" style="" class="label"><rect></rect><foreignObject height="21" width="210"><div style="display: inline-block; white-space: nowrap;" xmlns="http://www.w3.org/1999/xhtml"><span class="nodeLabel">OffsetStore 更新消费 offset</span></div></foreignObject></g></g><g transform="translate(68, 1521)" data-id="P" data-node="true" id="flowchart-P-31" class="node default local flowchart-label"><rect height="36" width="135" y="-18" x="-67.5" ry="0" rx="0" style="" class="basic label-container"></rect><g transform="translate(-60, -10.5)" style="" class="label"><rect></rect><foreignObject height="21" width="120"><div style="display: inline-block; white-space: nowrap;" xmlns="http://www.w3.org/1999/xhtml"><span class="nodeLabel">更新 nextOffset</span></div></foreignObject></g></g><g transform="translate(298, 1607)" data-id="Q" data-node="true" id="flowchart-Q-33" class="node default local flowchart-label"><rect height="36" width="176" y="-18" x="-88" ry="0" rx="0" style="" class="basic label-container"></rect><g transform="translate(-80.5, -10.5)" style="" class="label"><rect></rect><foreignObject height="21" width="161"><div style="display: inline-block; white-space: nowrap;" xmlns="http://www.w3.org/1999/xhtml"><span class="nodeLabel">再次提交 PullRequest</span></div></foreignObject></g></g></g></g></g></svg>